<svg width="166" height="59" viewBox="0 0 166 59" fill="none" xmlns="http://www.w3.org/2000/svg">
<path d="M134.354 15.1516V56.6666H126.461V15.1516H134.354ZM138.405 56.6666V15.1516H152.347C159.319 15.1516 165.253 18.7166 165.253 33.8966V35.9666C165.253 45.2816 163.409 56.6666 152.808 56.6666H138.405ZM146.298 21.3041V50.5141H151.253C156.38 50.5141 157.187 43.9591 157.187 35.8516C157.187 25.6741 155.804 21.3041 151.483 21.3041H146.298Z" fill="#1890FF"/>
<path fill-rule="evenodd" clip-rule="evenodd" d="M32.4779 10.5966C31.2287 5.15858 28.1058 0.7308 27.6751 0C27.0075 1.01022 24.5091 4.92215 23.2384 9.26393C21.86 14.1002 21.6446 18.3775 22.1401 22.6118C22.6139 26.8247 24.4014 31.1665 24.4014 31.1665C25.3491 33.4448 26.7705 35.8737 27.6967 37.0773C29.0534 35.3148 32.1763 30.0702 33.1455 23.1922C33.684 19.3662 33.7055 16.0346 32.4779 10.5966ZM27.6751 35.7232C27.0721 34.5625 26.1244 32.3917 26.0166 28.9955C25.9953 25.7285 27.3089 22.9127 27.6967 22.3323C28.0412 22.9127 29.1611 25.363 29.3119 28.6947C29.3981 31.9617 28.3212 34.541 27.6751 35.7017V35.7232ZM32.1116 19.839C32.0687 21.924 31.8102 24.0948 31.5088 25.406C31.6163 23.1492 31.358 19.968 30.8196 17.4747C30.3025 14.9814 28.8381 10.833 27.6536 8.92007C26.5766 10.747 25.2414 14.3366 24.5307 17.4532C23.8199 20.5698 23.7984 24.3313 23.7984 25.4705C23.6045 24.5248 23.1523 21.1287 23.2815 17.7112C23.3892 14.8954 24.0569 11.9937 24.423 10.6611C25.8014 6.2118 27.3735 3.37458 27.6536 2.9232C27.955 3.37458 29.9149 6.87812 30.9271 10.5536C31.9395 14.2291 32.1549 17.7542 32.1116 19.839Z" fill="#1890FF"/>
<path fill-rule="evenodd" clip-rule="evenodd" d="M29.7858 38.3255H20.3095V44.6663C20.3095 44.6663 20.3095 44.6663 20.3311 44.6448C22.5709 42.4095 26.1676 42.4095 28.4074 44.6448C30.6473 46.8801 30.6473 50.4698 28.4074 52.7051C28.4074 52.7051 28.4074 52.7051 28.386 52.7266C28.386 52.7266 28.3644 52.7266 28.3427 52.7481C26.1245 54.962 23.217 56.0581 20.3095 56.0581C17.4021 56.0581 14.473 54.9405 12.2331 52.7266C8.31333 48.8146 7.8395 42.7533 10.8332 38.3255C11.2424 37.7238 11.6947 37.1648 12.2331 36.6275C14.473 34.4136 17.3805 33.296 20.3095 33.296V18.0566C9.08866 18.0566 0 27.1486 0 38.3255C0 49.5025 9.08866 58.5945 20.3095 58.5945C26.1676 58.5945 31.4227 56.1226 35.1269 52.1678V38.304H29.7642L29.7858 38.3255Z" fill="#1890FF"/>
<path fill-rule="evenodd" clip-rule="evenodd" d="M38.229 15.0781H46.1116V17.6358H42.3425V35.691H38.229V15.0781Z" fill="#1890FF"/>
<path fill-rule="evenodd" clip-rule="evenodd" d="M50.548 27.9532L51.2587 17.6358H51.4957L52.2063 27.9532H50.548ZM45.9822 35.691H50.0311L50.4187 30.21H52.3572L52.7448 35.691H56.7938L54.6401 15.0781H48.1574L46.0037 35.691H45.9822Z" fill="#1890FF"/>
<path fill-rule="evenodd" clip-rule="evenodd" d="M62.2207 28.469V32.3593C62.2207 32.8967 62.6298 33.0472 62.8668 33.0472C63.2544 33.0472 63.5128 32.7248 63.5128 32.3593V27.5662C63.5128 26.9213 63.3837 26.212 61.8545 26.212H60.1746V23.9552H61.9191C63.1036 23.9552 63.5128 23.6973 63.5128 22.4292V18.3238C63.5128 17.9798 63.2544 17.6575 62.8668 17.6575C62.6298 17.6575 62.2207 17.8078 62.2207 18.3238V21.6768H58.0854V18.7537C58.0854 17.3135 58.2578 15.0781 61.1439 15.0781H64.5682C67.4542 15.0781 67.6265 17.3135 67.6265 18.7537V22.0422C67.6265 24.2777 66.0542 24.901 64.8267 24.8365V25.0513C67.605 24.987 67.6265 27.1148 67.6265 27.8457V31.994C67.6265 33.4342 67.4542 35.6695 64.5682 35.6695H61.1439C58.2578 35.6695 58.0854 33.4342 58.0854 31.994V28.469H62.2207Z" fill="#1890FF"/>
<path fill-rule="evenodd" clip-rule="evenodd" d="M69.8016 15.0781H79.3642V35.691H75.25V17.6358H73.9367V35.691H69.8016V15.0781Z" fill="#1890FF"/>
<path fill-rule="evenodd" clip-rule="evenodd" d="M85.9112 26.4055V17.6358H86.4492C86.902 17.6358 87.2248 18.0228 87.2248 18.6677V25.3953C87.2248 26.0402 86.902 26.427 86.4492 26.427H85.9112V26.4055ZM81.7762 35.6695H85.9112V28.6625H88.2589C91.1446 28.6625 91.3382 26.427 91.3382 24.987V18.7537C91.3382 17.3135 91.166 15.0781 88.2589 15.0781H81.7762V35.691V35.6695Z" fill="#1890FF"/>
<path fill-rule="evenodd" clip-rule="evenodd" d="M98.7693 32.3575C98.7693 32.7228 98.5111 33.0453 98.1237 33.0453C97.886 33.0453 97.4772 32.8948 97.4772 32.3575V18.3218C97.4772 17.7845 97.886 17.6555 98.1237 17.6555C98.5111 17.6555 98.7693 17.9778 98.7693 18.3218V32.3575ZM93.3423 32.0135C93.3423 33.4537 93.5145 35.689 96.4218 35.689H99.8463C102.732 35.689 102.904 33.4537 102.904 32.0135V18.7732C102.904 17.333 102.732 15.0977 99.8463 15.0977H96.4218C93.536 15.0977 93.3423 17.333 93.3423 18.7732V32.0135Z" fill="#1890FF"/>
<path fill-rule="evenodd" clip-rule="evenodd" d="M115.762 15.0781H121.125V35.691H117.011V22.773H116.86L114.728 35.691H111.433L109.3 22.773H109.15V35.691H105.036V15.0781H110.399L113.091 29.5652L115.762 15.0781Z" fill="#1890FF"/>
<path d="M121.91 38.3333H38.41V56.6666H121.91V38.3333Z" fill="#1890FF"/>
<path d="M47.3779 48.4333V53.3333H45.09V41.2999H49.4153C51.3692 41.2999 52.5883 42.8833 52.5883 44.8166C52.5883 46.7999 51.3358 48.4333 49.3819 48.4333H47.3779ZM47.3779 43.0833V46.6499H48.5302C49.6825 46.6499 50.2503 45.9999 50.2503 44.8499C50.2503 43.7166 49.6825 43.0833 48.5302 43.0833H47.3779ZM58.1819 41.2999H64.6281V43.1333H60.4698V45.9333H64.2607V47.7666H60.4698V51.4999H64.6281V53.3333H58.1819V41.2999ZM69.9835 45.1999C69.9835 42.1666 71.6201 41.0833 73.908 41.0833C76.2293 41.0833 77.7824 42.1333 77.7824 45.1999V49.5666C77.7824 52.6333 76.2293 53.6166 73.908 53.6166C71.6201 53.6166 69.9835 52.5999 69.9835 49.5666V45.1999ZM73.908 42.9166C72.8225 42.9166 72.3215 43.6499 72.3215 44.9333V49.8499C72.3215 51.0999 72.8225 51.7833 73.908 51.7833C74.8933 51.7833 75.4444 51.1166 75.4444 49.8499V44.9666C75.4444 43.6833 74.8933 42.9166 73.908 42.9166ZM85.6588 48.4333V53.3333H83.3709V41.2999H87.6962C89.6501 41.2999 90.8692 42.8833 90.8692 44.8166C90.8692 46.7999 89.6167 48.4333 87.6628 48.4333H85.6588ZM85.6588 43.0833V46.6499H86.8111C87.9634 46.6499 88.5312 45.9999 88.5312 44.8499C88.5312 43.7166 87.9634 43.0833 86.8111 43.0833H85.6588ZM98.7506 41.2999V51.4999H102.909V53.3333H96.4627V41.2999H98.7506ZM108.136 41.2999H114.582V43.1333H110.424V45.9333H114.215V47.7666H110.424V51.4999H114.582V53.3333H108.136V41.2999Z" fill="white"/>
</svg>
